HIERARCHY
ROOT Hips
{
	OFFSET	0.00	0.00	0.00
	CHANNELS 6 Xposition Yposition Zposition Zrotation Xrotation Yrotation
	JOINT LeftUpLeg
	{
		OFFSET	 0.126116	-0.065224	 0.014019
		CHANNELS 3 Zrotation Xrotation Yrotation
		JOINT LeftLeg
		{
			OFFSET	 0.000000	 0.569914	 0.000000
			CHANNELS 3 Zrotation Xrotation Yrotation
			JOINT LeftFoot
			{
				OFFSET	 0.000000	 0.544423	 0.000000
				CHANNELS 3 Zrotation Xrotation Yrotation
				JOINT LeftToeBase
				{
					OFFSET	 0.000000	 0.207117	 0.000000
					CHANNELS 3 Zrotation Xrotation Yrotation
					End Site
					{
						OFFSET	 0.000000	 0.207117	 0.000000
					}
				}
			}
		}
	}
	JOINT RightUpLeg
	{
		OFFSET	-0.124023	-0.065224	 0.008373
		CHANNELS 3 Zrotation Xrotation Yrotation
		JOINT RightLeg
		{
			OFFSET	 0.000000	 0.570047	 0.000000
			CHANNELS 3 Zrotation Xrotation Yrotation
			JOINT RightFoot
			{
				OFFSET	 0.000000	 0.544354	 0.000000
				CHANNELS 3 Zrotation Xrotation Yrotation
				JOINT RightToeBase
				{
					OFFSET	 0.000000	 0.207540	 0.000000
					CHANNELS 3 Zrotation Xrotation Yrotation
					End Site
					{
						OFFSET	 0.000000	 0.207540	 0.000000
					}
				}
			}
		}
	}
	JOINT Spine
	{
		OFFSET	 0.000184	 0.117403	 0.007763
		CHANNELS 3 Zrotation Xrotation Yrotation
		JOINT Spine1
		{
			OFFSET	 0.000000	 0.137269	 0.000000
			CHANNELS 3 Zrotation Xrotation Yrotation
			JOINT Spine2
			{
				OFFSET	 0.000000	 0.156879	 0.000000
				CHANNELS 3 Zrotation Xrotation Yrotation
				JOINT LeftShoulder
				{
					OFFSET	 0.080501	 0.160143	 0.002496
					CHANNELS 3 Zrotation Xrotation Yrotation
					JOINT LeftArm
					{
						OFFSET	 0.000000	 0.164363	 0.000000
						CHANNELS 3 Zrotation Xrotation Yrotation
						JOINT LeftForeArm
						{
							OFFSET	 0.000000	 0.364576	 0.000000
							CHANNELS 3 Zrotation Xrotation Yrotation
							JOINT LeftHand
							{
								OFFSET	 0.000000	 0.360812	 0.000000
								CHANNELS 3 Zrotation Xrotation Yrotation
								JOINT LeftHandIndex1
								{
									OFFSET	 0.000000	 0.086006	 0.000000
									CHANNELS 3 Zrotation Xrotation Yrotation
									JOINT LeftHandIndex2
									{
										OFFSET	 0.000000	 0.047237	 0.000000
										CHANNELS 3 Zrotation Xrotation Yrotation
										JOINT LeftHandIndex3
										{
											OFFSET	-0.004284	 0.038165	 0.000551
											CHANNELS 3 Zrotation Xrotation Yrotation
											End Site
											{
												OFFSET	-0.004284	 0.038165	 0.000551
											}
										}
									}
								}
							}
						}
					}
				}
				JOINT Neck
				{
					OFFSET	 0.000000	 0.176489	 0.000000
					CHANNELS 3 Zrotation Xrotation Yrotation
					JOINT Head
					{
						OFFSET	 0.000000	 0.077941	 0.001747
						CHANNELS 3 Zrotation Xrotation Yrotation
						End Site
						{
							OFFSET	 0.000000	 0.077941	 0.001747
						}
					}
				}
				JOINT RightShoulder
				{
					OFFSET	-0.080363	 0.159706	-0.000306
					CHANNELS 3 Zrotation Xrotation Yrotation
					JOINT RightArm
					{
						OFFSET	 0.000000	 0.164196	 0.000000
						CHANNELS 3 Zrotation Xrotation Yrotation
						JOINT RightForeArm
						{
							OFFSET	 0.000000	 0.365611	 0.000000
							CHANNELS 3 Zrotation Xrotation Yrotation
							JOINT RightHand
							{
								OFFSET	 0.000000	 0.360648	 0.000000
								CHANNELS 3 Zrotation Xrotation Yrotation
								JOINT RightHandIndex1
								{
									OFFSET	 0.000000	 0.069977	 0.000000
									CHANNELS 3 Zrotation Xrotation Yrotation
									JOINT RightHandIndex2
									{
										OFFSET	 0.000000	 0.052305	 0.000000
										CHANNELS 3 Zrotation Xrotation Yrotation
										JOINT RightHandIndex3
										{
											OFFSET	 0.009002	 0.042196	 0.000782
											CHANNELS 3 Zrotation Xrotation Yrotation
											End Site
											{
												OFFSET	 0.009002	 0.042196	 0.000782
											}
										}
									}
								}
							}
						}
					}
				}
			}
		}
	}
}
MOTION
Frames:    7
Frame Time: 0.03333334
 0.000772	 1.272455	 0.063286	 0.213481	-0.003910	 179.996100	-179.853800	 1.868768	 4.797307	 2.668911	-12.396470	 0.032457	-3.882172	 71.574140	 4.520119	 1.292262	 28.425850	-2.713146	-179.868100	 1.852704	-4.764653	-2.474880	-11.861650	 0.009110	 3.926598	 71.114750	-4.621661	-1.288183	 28.361890	 2.710176	-0.095419	 2.718040	-5.212529	 1.160192	 3.714773	-2.705362	-1.080467	-4.727205	 7.862535	-101.478000	 1.740682	 90.353390	-2.199498	 61.819320	 4.928034	 7.192113	 14.680420	 0.527447	 4.192417	-15.784530	-18.287020	-6.580301	 5.266122	 0.000000	 0.000000	 0.000000	 0.000000	 0.000000	 0.000000	 0.000000	 0.089846	-3.783161	 0.005928	-0.018487	 1.092895	 1.938205	 101.796200	-0.213311	-89.955450	-2.881435	 64.702590	-5.707514	-7.337420	 11.086090	 1.993610	-17.826780	-6.987861	-16.139050	 15.208500	 5.323790	 0.000000	 0.000000	 0.000000	 0.000000	 0.000000	 0.000000	 0.000000
 0.000759	 1.274868	 0.063127	 0.217075	-0.004066	 179.995800	-179.916500	 1.847871	 5.437246	 2.668586	-12.395010	 0.032388	-3.799070	 71.176140	 4.449989	 1.292262	 28.425850	-2.713146	-179.803900	 1.826146	-5.404306	-2.471362	-11.845270	 0.009826	 3.846946	 70.707620	-4.553741	-1.288183	 28.361890	 2.710176	-0.085850	 2.619497	-5.170387	 1.141213	 4.055879	-2.694551	-1.050323	-5.165473	 7.804426	-101.478000	 1.740677	 90.353390	-3.479424	 60.615720	 6.075285	 8.393888	 16.986060	 0.199502	 4.094490	-17.115240	-18.017080	-6.580301	 5.266122	 0.000000	 0.000000	 0.000000	 0.000000	 0.000000	 0.000000	 0.000000	 0.089846	-3.783161	 0.005928	-0.017500	 1.043495	 1.921489	 101.796200	-0.213308	-89.955460	-0.900606	 63.314520	-7.505773	-9.174318	 13.745400	 2.384334	-17.502340	-8.383931	-16.479860	 15.208500	 5.323790	 0.000000	 0.000000	 0.000000	 0.000000	 0.000000	 0.000000	 0.000000
 0.000750	 1.277520	 0.062952	 0.219066	-0.004670	 179.995800	-179.985800	 1.821960	 6.139064	 2.666979	-12.387780	 0.032041	-3.712529	 70.736080	 4.378729	 1.292262	 28.425850	-2.713146	-179.735200	 1.797791	-6.106212	-2.468008	-11.829670	 0.010517	 3.763020	 70.261760	-4.482957	-1.288183	 28.361890	 2.710176	-0.075757	 2.511833	-5.085457	 1.112062	 4.426976	-2.662457	-1.009937	-5.644239	 7.682378	-101.478000	 1.740671	 90.353390	-4.667246	 59.453980	 7.136329	 9.572654	 19.187200	-0.166523	 4.090834	-18.463620	-17.585370	-6.580301	 5.266122	 0.000000	 0.000000	 0.000000	 0.000000	 0.000000	 0.000000	 0.000000	 0.089846	-3.783161	 0.005928	-0.016347	 0.991708	 1.888688	 101.796200	-0.213327	-89.955440	 0.869027	 61.924020	-9.099223	-11.023110	 16.348910	 2.854694	-17.282220	-9.860260	-16.734990	 15.208500	 5.323790	 0.000000	 0.000000	 0.000000	 0.000000	 0.000000	 0.000000	 0.000000
 0.000878	 1.294433	 0.061850	 0.166325	-0.010959	-179.999400	 179.564800	 1.547683	 10.572920	 2.610932	-12.135410	 0.020139	-3.247029	 67.830400	 4.041798	 1.292262	 28.425850	-2.713146	-179.359100	 1.631442	-10.551000	-2.460328	-11.793910	 0.012089	 3.303863	 67.458940	-4.115093	-1.288183	 28.361890	 2.710176	-0.048812	 1.896119	-3.623699	 0.728476	 6.552263	-1.945520	-0.612681	-8.418946	 5.495812	-101.478000	 1.740674	 90.353390	-9.681394	 53.898580	 11.545880	 15.551640	 29.293710	-2.632791	 5.027576	-28.631450	-11.608030	-6.580301	 5.266122	 0.000000	 0.000000	 0.000000	 0.000000	 0.000000	 0.000000	 0.000000	 0.089846	-3.783161	 0.005928	-0.008590	 0.735795	 1.337685	 101.796200	-0.213317	-89.955440	 7.347906	 51.713580	-14.460580	-26.247980	 34.157590	 9.063482	-18.409950	-24.447500	-19.616220	 15.208500	 5.323790	 0.000000	 0.000000	 0.000000	 0.000000	 0.000000	 0.000000	 0.000000
 0.000924	 1.297330	 0.061660	 0.147122	-0.011408	-179.998700	 179.560900	 1.522431	 10.545950	 2.597865	-12.076530	 0.017396	-3.209017	 67.298680	 4.023964	 1.292262	 28.425850	-2.713146	-179.373500	 1.641718	-10.544020	-2.464817	-11.814800	 0.011172	 3.227819	 66.968640	-4.047498	-1.288183	 28.361890	 2.710176	-0.051284	 1.812861	-3.220853	 0.634675	 6.843834	-1.732366	-0.529066	-8.804184	 4.884086	-101.478000	 1.740664	 90.353380	-10.273670	 53.082720	 12.043340	 16.458810	 30.662840	-3.086112	 5.256698	-31.428720	-10.065680	-6.580301	 5.266122	 0.000000	 0.000000	 0.000000	 0.000000	 0.000000	 0.000000	 0.000000	 0.089846	-3.783161	 0.005928	-0.007315	 0.706067	 1.187141	 101.796200	-0.213317	-89.955440	 7.606894	 49.120670	-14.401280	-31.130160	 38.419960	 11.776010	-19.338720	-28.982960	-21.502200	 15.208500	 5.323790	 0.000000	 0.000000	 0.000000	 0.000000	 0.000000	 0.000000	 0.000000
 0.000973	 1.299977	 0.061487	 0.126988	-0.011325	-179.998900	 179.554500	 1.497311	 10.529950	 2.585425	-12.020420	 0.014800	-3.153808	 66.810920	 3.984628	 1.292262	 28.425850	-2.713146	-179.388400	 1.654919	-10.528810	-2.470734	-11.842360	 0.009959	 3.182908	 66.523420	-4.012666	-1.288183	 28.361890	 2.710176	-0.055835	 1.745548	-2.817564	 0.543012	 7.082541	-1.515427	-0.450478	-9.120282	 4.269862	-101.478000	 1.740669	 90.353390	-10.760220	 52.333080	 12.438920	 17.278090	 31.861240	-3.511286	 5.529434	-34.436340	-8.519194	-6.580301	 5.266122	 0.000000	 0.000000	 0.000000	 0.000000	 0.000000	 0.000000	 0.000000	 0.089846	-3.783161	 0.005928	-0.006179	 0.682799	 1.036955	 101.796200	-0.213310	-89.955440	 7.466153	 46.409570	-13.861290	-37.004030	 42.719280	 15.388960	-20.592420	-33.908790	-24.133190	 15.208500	 5.323790	 0.000000	 0.000000	 0.000000	 0.000000	 0.000000	 0.000000	 0.000000
 0.001036	 1.301300	 0.061402	 0.104993	-0.011972	-179.997800	 179.547300	 1.469417	 10.522860	 2.571347	-11.956890	 0.011876	-3.122829	 66.550830	 3.964099	 1.292262	 28.425850	-2.713146	-179.403100	 1.671974	-10.519960	-2.478272	-11.877420	 0.008406	 3.164475	 66.313670	-3.997974	-1.288183	 28.361890	 2.710176	-0.061884	 1.686126	-2.382457	 0.445105	 7.290470	-1.278636	-0.369595	-9.396806	 3.603945	-101.478000	 1.740674	 90.353380	-11.085250	 51.883470	 12.691040	 17.674380	 32.428050	-3.722067	 6.068337	-37.577550	-6.850382	-6.580301	 5.266122	 0.000000	 0.000000	 0.000000	 0.000000	 0.000000	 0.000000	 0.000000	 0.089846	-3.783161	 0.005928	-0.005063	 0.663101	 0.874884	 101.796200	-0.213301	-89.955460	 6.730574	 43.523180	-12.585050	-44.334270	 47.048780	 20.277510	-22.499610	-39.444360	-27.897250	 15.208500	 5.323790	 0.000000	 0.000000	 0.000000	 0.000000	 0.000000	 0.000000	 0.000000
